<svg id="Red_eye_4" data-name="Red eye  4" xmlns="http://www.w3.org/2000/svg" width="415" height="378" viewBox="0 0 415 378">
  <ellipse id="Ellipse_98" data-name="Ellipse 98" cx="207.5" cy="189" rx="207.5" ry="189" fill="#f66b5b"/>
  <path id="Path_9" data-name="Path 9" d="M-3564.684,3546.511s78.208-100.816,160.094-100.816,167.449,100.816,167.449,100.816-85.563,78.718-167.449,78.718S-3564.684,3546.511-3564.684,3546.511Z" transform="translate(3613 -3355)" fill="#fff"/>
  <ellipse id="Ellipse_94" data-name="Ellipse 94" cx="74" cy="69" rx="74" ry="69" transform="translate(138 111)" fill="#b6d1e1"/>
  <path id="Intersection_1" data-name="Intersection 1" d="M4361-2968c0-38.108,33.13-69,74-69v138C4394.131-2899,4361-2929.893,4361-2968Z" transform="translate(-3442.625 4069.819) rotate(-13)" fill="#90c6e6"/>
  <g id="Ellipse_95" data-name="Ellipse 95" transform="translate(175 143)" fill="#484848" stroke="#484848" stroke-width="1">
    <circle cx="37" cy="37" r="37" stroke="none"/>
    <circle cx="37" cy="37" r="36.5" fill="none"/>
  </g>
  <g id="Ellipse_96" data-name="Ellipse 96" transform="translate(222 162)" fill="#fff" stroke="#707070" stroke-width="1">
    <circle cx="7" cy="7" r="7" stroke="none"/>
    <circle cx="7" cy="7" r="6.5" fill="none"/>
  </g>
</svg>
